<svg xmlns="http://www.w3.org/2000/svg" viewBox="0 0 105 105"><defs><style>.cls-1{fill:#fff;}.cls-2{fill:none;}</style></defs><g id="Layer_2" data-name="Layer 2"><g id="Layer_1-2" data-name="Layer 1"><g id="Layer_2-2" data-name="Layer 2"><g id="Livello_1" data-name="Livello 1"><path class="cls-1" d="M52.39,105,41.93,78.47l-27,8.26L22.84,72.3c-7.18-3.64-11.66-11-11.66-19.85s4.43-16.23,11.61-19.88L15,18.22l27,8.26L52.39,0,62.84,26.48l27-8.26-7.9,14.42a22.4,22.4,0,0,1,0,39.58l7.92,14.51-27-8.26Z"/><path d="M33.35,45.19a7.23,7.23,0,1,0,7.22,7.24h0a7.23,7.23,0,0,0-7.22-7.23"/><path d="M71.43,45.19a7.23,7.23,0,1,0,7.22,7.24h0a7.23,7.23,0,0,0-7.22-7.23"/><path d="M74.48,65.74c-19.64,3.81-23-26.31-3-27,16,.06,18.68,23.36,3,27M19.68,52.42c.38-18,27-17.9,27.33,0-.3,17.9-27,18-27.33,0m70.79,0A19,19,0,0,0,77.23,34.28l5.69-10.44L60.86,30.59,52.39,9.13,43.91,30.59,21.85,23.84l5.7,10.44c-17.37,5-17.37,31.31.05,36.29L21.85,81.12l22.06-6.76,8.48,21.46,8.47-21.46,22.06,6.76L77.18,70.57a19,19,0,0,0,13.3-18.15"/></g></g><rect class="cls-2" width="105" height="105"/></g></g></svg>