<?xml version="1.0" encoding="utf-8"?>
<!-- Generator: Adobe Illustrator 25.2.1, SVG Export Plug-In . SVG Version: 6.00 Build 0)  -->
<svg version="1.1" id="Layer_1" xmlns="http://www.w3.org/2000/svg" xmlns:xlink="http://www.w3.org/1999/xlink" x="0px" y="0px"
	 viewBox="0 0 355.1 129.3" style="enable-background:new 0 0 355.1 129.3;" xml:space="preserve">
<polygon points="92.5,21.9 70.1,22 47.2,87 46.4,90.2 45.6,86.8 23.2,21.9 0,21.9 0,107.3 16.6,107.3 16.6,42.5 39.5,107.3 
	52.9,107.3 75.9,42.5 75.9,107.3 92.5,107.3 "/>
<path d="M127.4,96c2.7,0,5.4-0.6,7.8-1.8c2.1-1.1,4-2.6,5.5-4.4c1.4-1.7,2.6-3.7,3.4-5.8c0.7-1.9,1.1-3.8,1.1-5.8v-4
	c-1.1,1.1-2.5,2-4,2.5c-2.6,0.9-5.3,1.6-8,2.2c-5.7,1.2-9.8,2.5-12.2,3.9c-2.4,1.1-3.8,3.6-3.7,6.2c-0.2,2.1,0.8,4.1,2.6,5.3
	C121.5,95.4,124.1,95.9,127.4,96 M120.7,108.5c-6.3,0-11.4-1.5-15.1-4.4s-5.6-7-5.7-12.1c-0.1-3.2,0.6-6.4,2.2-9.1
	c1.5-2.4,3.5-4.4,5.9-5.9c2.8-1.7,5.8-3,8.9-3.9c3.6-1.1,8.5-2.3,14.9-3.5c5.4-1.1,8.9-2.2,10.5-3.4c1.5-1.1,2.4-2.9,2.4-4.7
	c0-2.1-1-4.1-2.7-5.4c-1.8-1.5-4.8-2.2-9-2.2c-3.7-0.2-7.4,1-10.3,3.3c-2.8,2.3-4.7,5.4-5.7,8.9l-15.4-4.5c2.7-7.2,7-12.5,12.7-15.9
	c5.9-3.5,12.7-5.2,19.5-5.2c8.1,0,14.7,2,19.7,6.1s7.5,10.3,7.5,18.6v22.5c0,3,0.5,5.1,1.4,6.2s2.5,1.6,4.7,1.6
	c0.8,0,1.7-0.1,2.5-0.3c0.7-0.2,1.4-0.4,2.1-0.6v11c-1.5,0.9-3,1.6-4.7,2c-2.1,0.6-4.3,0.9-6.5,0.9c-5.2,0-9-1.2-11.5-3.6
	s-3.8-6.2-4.1-11.2c-1.9,4.5-5.2,8.4-9.4,10.9C130.9,107.2,125.9,108.5,120.7,108.5"/>
<path d="M234.1,41.8v65.5h-17V92.6c-2.2,5.3-5.2,9.3-8.9,12c-3.7,2.6-8.1,4-12.7,4c-7.6,0-13.3-2.4-17.2-7.1s-5.9-11-5.9-18.8V41.8
	h17.1v36c0,5.2,1,9.3,3,12.2c2,2.9,5.5,4.3,10.4,4.3c4.3,0.2,8.3-2,10.5-5.6c2.4-3.7,3.6-8.5,3.6-14.4V41.8H234.1z"/>
<path d="M279.1,40.9c1.9,0,3.8,0.1,5.7,0.5c1.5,0.3,3,0.8,4.5,1.5l-4.2,15.7c-1.5-0.8-3.1-1.4-4.8-1.8c-1.8-0.4-3.7-0.7-5.6-0.6
	c-3.6-0.1-6.9,1.6-9.1,4.4c-2.3,3-3.5,7.2-3.5,12.6v34.2H245V41.8h17v14.8c1.5-5.4,3.6-9.4,6.2-11.9C271,42.2,274.6,40.9,279.1,40.9
	"/>
<path d="M321,94.1c5.9,0,10.2-1.8,12.7-5.4c2.6-3.6,3.9-8.3,3.9-14.1c0-5.9-1.3-10.6-3.9-14.3s-6.8-5.5-12.7-5.6
	c-5.8,0-10,1.9-12.6,5.6c-2.7,3.7-4,8.5-4,14.3c0,5.8,1.2,10.6,3.7,14.2C310.6,92.3,314.9,94.1,321,94.1 M321,108.5
	c-5,0.1-9.9-0.7-14.5-2.5c-4-1.5-7.7-3.9-10.6-7s-5.1-6.8-6.5-10.8c-1.6-4.4-2.3-9-2.3-13.6s0.8-9.2,2.3-13.5
	c1.5-4,3.8-7.7,6.7-10.8c3-3.1,6.7-5.5,10.7-7.1c9.3-3.4,19.5-3.4,28.8,0.1c4,1.6,7.7,4.1,10.7,7.2c2.9,3.1,5.1,6.8,6.5,10.8
	c1.5,4.3,2.3,8.8,2.3,13.4s-0.8,9.1-2.3,13.4c-1.5,4-3.8,7.7-6.7,10.8c-3.1,3.1-6.7,5.5-10.8,7.1C330.7,107.7,325.9,108.6,321,108.5
	"/>
</svg>
