<?xml version="1.0" encoding="utf-8"?>
<!-- Generator: Adobe Illustrator 25.2.1, SVG Export Plug-In . SVG Version: 6.00 Build 0)  -->
<svg version="1.1" id="Layer_1" xmlns="http://www.w3.org/2000/svg" xmlns:xlink="http://www.w3.org/1999/xlink" x="0px" y="0px"
	 viewBox="0 0 113.2 129.3" style="enable-background:new 0 0 113.2 129.3;" xml:space="preserve">
<path d="M28.1,53.8c-6,0-10.8,4.8-10.8,10.8s4.8,10.8,10.8,10.8s10.8-4.8,10.8-10.8l0,0C38.8,58.6,34,53.8,28.1,53.8"/>
<path d="M84.8,53.8c-6,0-10.8,4.8-10.8,10.8s4.8,10.8,10.8,10.8s10.8-4.8,10.8-10.8l0,0C95.6,58.6,90.8,53.8,84.8,53.8"/>
<path d="M89.4,84.4C60.1,90.1,55,45.2,84.8,44.2C108.8,44.3,112.7,79,89.4,84.4 M7.7,64.6c0.6-26.9,40.3-26.7,40.8,0
	C48,91.3,8.2,91.4,7.7,64.6 M113.2,64.6c0-12.3-8-23.3-19.7-27l8.5-15.6L69.1,32L56.5,0L43.8,32L10.9,21.9l8.5,15.6
	C-6.5,45-6.4,84.2,19.5,91.6l-8.6,15.7l32.9-10.1l12.6,32l12.6-32l32.9,10.1l-8.6-15.7C105.2,87.9,113.2,76.9,113.2,64.6"/>
</svg>
